HIERARCHY
ROOT Character1_Hips
{
  OFFSET -7.75398 102.257 55.0268
  CHANNELS 6 Xposition Yposition Zposition Zrotation Xrotation Yrotation
  JOINT Character1_Spine
  {
    OFFSET 0 8.754 -1.339
    CHANNELS 3 Zrotation Xrotation Yrotation
    JOINT Character1_Spine1
    {
      OFFSET 0 10.855 -0.645
      CHANNELS 3 Zrotation Xrotation Yrotation
      JOINT Character1_LeftShoulder
      {
        OFFSET 1.467 27.745 1.178
        CHANNELS 3 Zrotation Xrotation Yrotation
        JOINT Character1_LeftArm
        {
          OFFSET 18.486 -1.858 0.275
          CHANNELS 3 Zrotation Xrotation Yrotation
          JOINT Character1_LeftForeArm
          {
            OFFSET 31.798 2.36 2.921
            CHANNELS 3 Zrotation Xrotation Yrotation
            JOINT Character1_LeftHand
            {
              OFFSET 29.001 1.642 2.112
              CHANNELS 3 Zrotation Xrotation Yrotation
              End Site
              {
                OFFSET 0.269758 0.141128 0.89614
              }
            }
            JOINT L_Radius_RIGMESH
            {
              OFFSET 0.592911 0.209926 -0.435177
              CHANNELS 3 Zrotation Xrotation Yrotation
              End Site
              {
                OFFSET 0 0 0
              }
            }
          }
          JOINT L_Humerus_RIGMESH
          {
            OFFSET 0.000383861 -0.000257932 -6.47351e-005
            CHANNELS 3 Zrotation Xrotation Yrotation
            End Site
            {
              OFFSET 0 0 0
            }
          }
        }
        JOINT L_Shoulder_RIGMESH
        {
          OFFSET 3.24498e-005 -0.000608592 -0.000527677
          CHANNELS 3 Zrotation Xrotation Yrotation
          End Site
          {
            OFFSET 0 0 0
          }
        }
      }
      JOINT Character1_RightShoulder
      {
        OFFSET -1.467 27.745 1.178
        CHANNELS 3 Zrotation Xrotation Yrotation
        JOINT Character1_RightArm
        {
          OFFSET -18.486 -1.858 0.275
          CHANNELS 3 Zrotation Xrotation Yrotation
          JOINT Character1_RightForeArm
          {
            OFFSET -31.798 2.35964 2.92082
            CHANNELS 3 Zrotation Xrotation Yrotation
            JOINT Character1_RightHand
            {
              OFFSET -29.0007 1.64167 2.112
              CHANNELS 3 Zrotation Xrotation Yrotation
              End Site
              {
                OFFSET 161.773 0.141827 0.896322
              }
            }
            JOINT R_Radius_RIGMESH
            {
              OFFSET 104.095 0.21029 -0.434995
              CHANNELS 3 Zrotation Xrotation Yrotation
              End Site
              {
                OFFSET 0 0 0
              }
            }
          }
          JOINT R_Humerus_RIGMESH
          {
            OFFSET 39.9064 -0.000257932 -6.47351e-005
            CHANNELS 3 Zrotation Xrotation Yrotation
            End Site
            {
              OFFSET 0 0 0
            }
          }
        }
        JOINT R_Shoulder_RIGMESH
        {
          OFFSET -3.24498e-005 -0.000608592 -0.000527677
          CHANNELS 3 Zrotation Xrotation Yrotation
          End Site
          {
            OFFSET 0 0 0
          }
        }
      }
      JOINT Character1_Neck
      {
        OFFSET 0 30.836 0.626
        CHANNELS 3 Zrotation Xrotation Yrotation
        JOINT Character1_Head
        {
          OFFSET 0 8.074 3.498
          CHANNELS 3 Zrotation Xrotation Yrotation
          End Site
          {
            OFFSET 0 -0.00153379 1.54668e-005
          }
        }
        JOINT Neck_RIGMESH
        {
          OFFSET -0.795351 0.493049 -1.70276
          CHANNELS 3 Zrotation Xrotation Yrotation
          End Site
          {
            OFFSET 0 0 0
          }
        }
      }
      JOINT Torso_RIGMESH
      {
        OFFSET 0 -0.000828813 -0.000380861
        CHANNELS 3 Zrotation Xrotation Yrotation
        End Site
        {
          OFFSET 0 0 0
        }
      }
    }
    JOINT Spine_RIGMESH
    {
      OFFSET -0.700866 0.229527 0.546557
      CHANNELS 3 Zrotation Xrotation Yrotation
      End Site
      {
        OFFSET 0 0 0
      }
    }
  }
  JOINT Character1_RightUpLeg
  {
    OFFSET -9.035 -4.63425 1.845
    CHANNELS 3 Zrotation Xrotation Yrotation
    JOINT Character1_RightLeg
    {
      OFFSET -0.919521 -40.345 1.155
      CHANNELS 3 Zrotation Xrotation Yrotation
      JOINT Character1_RightFoot
      {
        OFFSET 1.95452 -45.2655 -4.18888
        CHANNELS 3 Zrotation Xrotation Yrotation
        JOINT Character1_RightToeBase
        {
          OFFSET 1.87056 -6.69517 14.7145
          CHANNELS 3 Zrotation Xrotation Yrotation
          End Site
          {
            OFFSET 0 0 0
          }
        }
        JOINT R_Talus_RIGMESH
        {
          OFFSET 8 -7.75529 4.18888
          CHANNELS 3 Zrotation Xrotation Yrotation
          End Site
          {
            OFFSET 0 0 0
          }
        }
      }
      JOINT R_Tibia_RIGMESH
      {
        OFFSET 0 0 0
        CHANNELS 3 Zrotation Xrotation Yrotation
        End Site
        {
          OFFSET 0 0 0
        }
      }
    }
    JOINT R_Femur_RIGMESH
    {
      OFFSET 0 0 0
      CHANNELS 3 Zrotation Xrotation Yrotation
      End Site
      {
        OFFSET 0 0 0
      }
    }
  }
  JOINT Character1_LeftUpLeg
  {
    OFFSET 9.035 -4.63425 1.845
    CHANNELS 3 Zrotation Xrotation Yrotation
    JOINT Character1_LeftLeg
    {
      OFFSET 0.919521 -40.345 1.155
      CHANNELS 3 Zrotation Xrotation Yrotation
      JOINT Character1_LeftFoot
      {
        OFFSET -1.95452 -45.2655 -4.18888
        CHANNELS 3 Zrotation Xrotation Yrotation
        JOINT Character1_LeftToeBase
        {
          OFFSET -1.87056 -6.69517 14.7145
          CHANNELS 3 Zrotation Xrotation Yrotation
          End Site
          {
            OFFSET 0 0 0
          }
        }
        JOINT L_Talus_RIGMESH
        {
          OFFSET -8 -7.75529 4.18888
          CHANNELS 3 Zrotation Xrotation Yrotation
          End Site
          {
            OFFSET 0 0 0
          }
        }
      }
      JOINT L_Tibia_RIGMESH
      {
        OFFSET 0 0 0
        CHANNELS 3 Zrotation Xrotation Yrotation
        End Site
        {
          OFFSET 0 0 0
        }
      }
    }
    JOINT L_Femur_RIGMESH
    {
      OFFSET 0 0 0
      CHANNELS 3 Zrotation Xrotation Yrotation
      End Site
      {
        OFFSET 0 0 0
      }
    }
  }
  JOINT Pelvis_RIGMESH
  {
    OFFSET 0 0 0
    CHANNELS 3 Zrotation Xrotation Yrotation
    End Site
    {
      OFFSET 0 0 0
    }
  }
}
MOTION
Frames:	5
Frame Time:	0.00833333
-1.16019 92.1282 61.3212 -10.8598 -15.2457 144.932 -1.59028e-015 3.18055e-015 -3.18055e-015 -7.0602 -25.6842 1.0613 2.35798e-007 -5.54736e-007 5.93987e-009 -23.746 -13.5608 -22.006 7.15589 -2.58362 -12.5693 9.13821 61.8178 -15.2063 -1.59028e-015 3.97569e-015 -3.18055e-015 5.1684e-015 -5.56597e-015 6.36111e-015 1.98785e-016 -1.59028e-015 -0 2.35798e-007 -5.54736e-007 5.93987e-009 -99.2719 -73.486 -123.669 -6.24684 -2.15369 10.9293 -139.647 74.8872 148.553 1.27222e-014 1.59028e-015 1.59028e-015 -3.18055e-015 3.18055e-015 1.59028e-015 1.98785e-016 -1.59028e-015 -0 1.98785e-016 3.97569e-016 -0 4.47477 20.8117 10.9855 -1.78039 2.39842 2.38828 1.98785e-016 3.97569e-016 -0 -2.85883 -16.6424 1.3325 18.9991 -33.8473 25.7191 -0.160178 31.2924 0.698575 -6.0837 -18.1361 -16.7038 -0.12463 27.2224 0.514516 7.95139e-016 0 -0 -2.38542e-015 -1.59028e-015 -0 7.95139e-016 -6.36111e-015 3.18055e-015 44.3942 -35.97 58.6845 1.38133 65.8993 -2.09317 5.46477 -10.3677 13.5952 0.156068 29.9648 -0.577623 -7.95139e-016 3.18055e-015 9.54166e-015 3.57812e-015 3.18055e-015 7.95139e-016 -3.18055e-015 9.54166e-015 -0 -1.59028e-015 3.18055e-015 -3.18055e-015 
-1.23195 92.8881 61.2597 -12.2061 -13.7908 141.467 3.53113e-031 3.18055e-015 -6.36111e-015 -8.14533 -25.8685 2.82225 2.35798e-007 -5.54736e-007 5.93987e-009 -22.9121 -13.0102 -22.7142 7.10004 -2.55657 -12.47 9.48854 62.4135 -15.6028 3.18055e-015 -3.18055e-015 3.18055e-015 2.38542e-015 4.17448e-015 -1.59028e-014 5.96354e-016 2.78299e-015 3.18055e-015 2.35798e-007 -5.54736e-007 5.93987e-009 -89.7301 -73.3232 -113.899 -6.26039 -2.16009 10.9534 -138.71 75.2767 147.584 1.27222e-014 0 1.59028e-015 -6.36111e-015 -3.18055e-015 -0 5.96354e-016 2.78299e-015 3.18055e-015 1.39149e-015 0 -3.18055e-015 4.49473 21.0139 11.9492 -1.50865 2.9177 2.73458 1.39149e-015 0 -3.18055e-015 -4.31138 -16.7167 2.5519 17.9535 -32.5459 27.5327 -0.145109 31.129 0.660302 -5.25355 -16.6074 -15.6149 -0.122026 26.9678 0.508874 1.98785e-015 -1.59028e-015 -3.18055e-015 -2.38542e-015 -1.59028e-015 -1.59028e-015 3.18055e-015 -6.36111e-015 -0 45.5251 -35.3616 62.6842 1.6711 68.8251 -2.37947 5.74883 -10.1706 14.1012 0.154352 29.809 -0.574046 0 0 -3.18055e-015 -4.37326e-015 -3.18055e-015 1.59028e-015 -7.95139e-016 -3.18055e-015 -1.59028e-015 3.53113e-031 3.18055e-015 -6.36111e-015 
-1.28998 93.6842 61.213 -13.3511 -12.426 138.2 -3.18055e-015 3.18055e-015 3.18055e-015 -9.1206 -26.0907 4.35535 2.35798e-007 -5.54736e-007 5.93987e-009 -22.0163 -12.3958 -23.4521 6.98667 -2.50289 -12.2643 9.75072 62.8391 -15.8979 -1.59028e-015 2.38542e-015 -3.18055e-015 -4.96962e-016 1.2424e-015 -6.36111e-015 -1.98785e-016 -5.96354e-016 6.36111e-015 2.35798e-007 -5.54736e-007 5.93987e-009 -85.9681 -72.5788 -109.973 -6.33504 -2.19522 11.0862 -140.254 74.6623 149.176 -6.36111e-015 0 -1.59028e-015 -6.36111e-015 1.59028e-015 4.77083e-015 -1.98785e-016 -5.96354e-016 6.36111e-015 -1.19271e-015 3.97569e-016 -3.18055e-015 4.50858 21.2093 12.9637 -1.13802 3.30338 3.09291 -1.19271e-015 3.97569e-016 -3.18055e-015 -5.5968 -16.8631 3.61586 16.8292 -31.4866 28.5827 -0.122188 30.9381 0.619559 -4.3996 -14.8906 -14.3724 -0.119341 26.6997 0.502978 7.95139e-016 -7.95139e-016 -3.18055e-015 -3.97569e-016 -1.59028e-015 6.36111e-015 3.18055e-015 -6.36111e-015 3.18055e-015 46.8135 -34.7066 66.5232 2.03592 71.6376 -2.74586 6.02435 -9.97035 14.5836 0.161527 30.5806 -0.590997 2.38542e-015 0 3.18055e-015 7.95139e-016 -3.18055e-015 -7.95139e-016 -1.59028e-015 0 -0 -3.18055e-015 3.18055e-015 3.18055e-015 
-1.33122 94.5269 61.1798 -14.2939 -11.2388 135.174 -3.18055e-015 -3.18055e-015 3.18055e-015 -9.95694 -26.4053 5.61091 2.35798e-007 -5.54736e-007 5.93988e-009 -20.9488 -11.6453 -24.289 6.74595 -2.39024 -11.826 9.84807 62.9915 -16.0068 -1.59028e-015 4.77083e-015 -0 5.31749e-015 1.2424e-016 -3.18055e-015 -1.98785e-015 -1.59028e-015 -3.18055e-015 2.35798e-007 -5.54736e-007 5.93988e-009 -90.1735 -71.3747 -113.981 -6.50634 -2.27579 11.3921 -144.727 72.3922 153.829 -3.18055e-015 -2.38542e-015 1.59028e-015 -3.18055e-015 -1.59028e-015 -0 -1.98785e-015 -1.59028e-015 -3.18055e-015 3.18055e-015 -1.39149e-015 9.54166e-015 4.5269 21.4081 14.0192 -0.607438 3.48514 3.45737 3.18055e-015 -1.39149e-015 9.54166e-015 -6.65187 -17.1195 4.49789 15.6826 -30.7662 28.6856 -0.0906801 30.7185 0.57541 -3.43837 -12.8351 -12.6499 -0.116258 26.384 0.496099 -1.19271e-015 0 3.18055e-015 -3.97569e-016 -1.59028e-015 -6.36111e-015 -7.95139e-016 0 -3.18055e-015 48.3607 -34.0484 70.2301 2.51677 74.3482 -3.23252 6.29739 -9.79241 15.0443 0.185708 32.7531 -0.641479 2.38542e-015 0 -3.18055e-015 -7.95139e-016 0 2.38542e-015 4.41391e-032 -3.18055e-015 7.95139e-016 -3.18055e-015 -3.18055e-015 3.18055e-015 
-1.35696 95.415 61.1458 -15.0627 -10.1343 132.275 1.59028e-015 3.18055e-015 -3.18055e-015 -10.6862 -26.7662 6.72351 2.35798e-007 -5.54736e-007 5.93987e-009 -19.7274 -10.8044 -25.1958 6.41061 -2.23416 -11.2198 9.81222 62.9344 -15.9665 -7.95139e-016 -4.17448e-015 -3.18055e-015 -2.38542e-015 1.10325e-014 -0 8.94531e-016 -7.95139e-016 -0 2.35798e-007 -5.54736e-007 5.93987e-009 -98.1303 -69.623 -121.721 -6.73726 -2.38483 11.8069 -149.359 68.9382 158.733 0 3.18055e-015 -0 -6.36111e-015 0 3.18055e-015 8.94531e-016 -7.95139e-016 -0 9.93923e-016 -1.78906e-015 -0 4.56044 21.5764 15.1053 0.0442645 3.54819 3.83014 9.93923e-016 -1.78906e-015 -0 -7.52449 -17.435 5.29403 14.5471 -30.2361 28.1368 -0.0520899 30.4688 0.52785 -2.49238 -10.4839 -10.6106 -0.113102 26.0549 0.488978 6.95746e-016 -9.93923e-017 -9.54166e-015 7.95139e-016 7.95139e-016 -3.18055e-015 3.53113e-031 3.18055e-015 -6.36111e-015 50.07 -33.2737 73.7847 3.18766 76.9948 -3.9122 6.55704 -9.5709 15.4805 0.230658 35.9747 -0.723052 -1.76556e-031 -3.18055e-015 -3.18055e-015 -7.95139e-016 -6.36111e-015 -2.38542e-015 1.59028e-015 1.27222e-014 -0 1.59028e-015 3.18055e-015 -3.18055e-015 
